kinematics
version=1
nRows=11
nColumns=34
inDegrees=yes
endheader
time	pelvis_tilt	pelvis_list	pelvis_rotation	pelvis_tx	pelvis_ty	pelvis_tz	hip_flexion_r	hip_adduction_r	hip_rotation_r	knee_angle_r	ankle_angle_r	subtalar_angle_r	mtp_angle_r	hip_flexion_l	hip_adduction_l	hip_rotation_l	knee_angle_l	ankle_angle_l	subtalar_angle_l	mtp_angle_l	lumbar_extension	lumbar_bending	lumbar_rotation	arm_flex_r	arm_add_r	arm_rot_r	elbow_flex_r	pro_sup_r	arm_flex_l	arm_add_l	arm_rot_l	elbow_flex_l	pro_sup_l
7.941667	-13.364448	5.020672	-4.134319	-0.061778	0.871382	0.086088	-5.420887	-3.527128	1.568470	19.782948	-13.272978	-0.507812	0.000000	37.548427	6.784030	-1.046538	27.669113	-1.529442	-12.216019	0.000000	2.498379	-8.034128	9.432225	14.543903	-13.599024	14.896588	96.722598	93.226438	-34.596287	-12.603288	-6.739094	86.908694	96.629503
7.950000	-12.735381	5.010171	-4.293172	-0.060069	0.872411	0.087425	-4.976435	-3.840102	0.655680	24.156711	-16.112853	-2.387085	0.000000	36.296516	6.813569	-0.907580	24.752412	-1.374823	-9.831549	0.000000	1.820712	-8.315838	9.331091	15.133438	-13.614074	16.168968	95.653376	92.892017	-35.339585	-12.079079	-8.407993	86.650460	96.635586
7.958333	-12.081712	4.988440	-4.359351	-0.058029	0.872681	0.088631	-4.448329	-4.169981	-0.153615	28.666559	-18.168921	-5.053014	0.000000	35.039214	6.848496	-0.685846	22.364027	-1.025481	-7.556368	0.000000	1.142145	-8.587736	9.200439	15.345234	-13.546630	17.201740	94.461546	92.632343	-35.527772	-11.791045	-9.804166	86.365642	96.654987
7.966667	-11.432939	4.965668	-4.334919	-0.055824	0.871995	0.089651	-3.859444	-4.493751	-0.814082	33.226124	-19.609173	-8.242231	0.000000	33.792547	6.910662	-0.353560	20.510292	-0.836427	-5.667161	0.000000	0.549697	-8.863544	9.036438	15.154738	-13.398813	17.983279	93.096958	92.438491	-35.188530	-11.771016	-10.928808	86.209374	96.689805
7.975000	-10.825620	4.950024	-4.233341	-0.053626	0.870158	0.090515	-3.192437	-4.805579	-1.324162	37.874558	-20.456657	-11.712732	0.000000	32.581114	6.998305	0.021833	19.175741	-0.759281	-4.150526	0.000000	0.063616	-9.122960	8.880864	14.509904	-13.173421	18.426886	91.654847	92.323096	-34.338446	-12.058662	-11.721577	86.294672	96.742897
7.983333	-10.282584	4.927670	-4.052172	-0.051571	0.867202	0.091112	-2.424421	-5.079723	-1.727561	42.606110	-20.855871	-15.181106	0.000000	31.435460	7.111725	0.434559	18.325675	-0.770663	-3.037861	0.000000	-0.266440	-9.350040	8.541851	13.619897	-12.872009	18.771966	89.973071	92.188701	-33.297083	-12.462712	-12.441716	86.828201	96.827433
7.991667	-9.790929	4.930090	-3.865504	-0.049798	0.863306	0.091481	-1.497955	-5.366945	-2.019147	47.478941	-20.758382	-18.390024	0.000000	30.337081	7.257558	0.792024	17.892312	-0.821961	-2.374100	0.000000	-0.494517	-9.569222	8.222600	12.402579	-12.534720	18.818038	88.237668	92.065790	-32.082900	-13.020244	-12.937145	87.837875	96.945538
8.000000	-9.373097	4.968157	-3.667391	-0.048291	0.858622	0.091603	-0.411174	-5.700717	-2.248714	52.418810	-20.152368	-21.240974	0.000000	29.316513	7.465083	1.064363	17.872192	-0.726372	-2.061670	0.000000	-0.621831	-9.786389	7.899416	10.920538	-12.163128	18.565060	86.456996	91.945470	-30.878315	-13.654030	-13.249575	89.326092	97.097547
8.008333	-9.051112	5.057834	-3.449861	-0.047099	0.853561	0.091436	0.858321	-6.124390	-2.443267	57.315139	-19.113756	-23.505219	0.000000	28.376582	7.777000	1.282384	18.216433	-0.405810	-2.115118	0.000000	-0.652028	-10.028487	7.580713	9.179256	-11.737723	17.965492	84.663576	91.840743	-29.804135	-14.337687	-13.348678	91.192781	97.293295
8.016667	-8.829743	5.156277	-3.182177	-0.046064	0.848359	0.090978	2.256742	-6.583732	-2.632757	61.997991	-17.768411	-25.152808	0.000000	27.519165	8.180150	1.482153	18.936159	0.303478	-2.419001	0.000000	-0.597552	-10.258734	7.215701	7.277428	-11.240988	17.006595	82.741357	91.747926	-28.903177	-15.034794	-13.221596	93.390961	97.563502
8.025000	-8.616640	5.284013	-2.889273	-0.045237	0.843587	0.090225	3.679482	-7.103809	-2.786078	66.349170	-16.384987	-26.326559	0.000000	26.622223	8.709385	1.673527	19.979622	1.469871	-2.977538	0.000000	-0.593986	-10.458534	6.648110	5.401013	-10.835647	16.198400	80.928559	91.661873	-28.174818	-15.574107	-13.077873	95.508988	97.719646
